<?xml version="1.0" standalone="no"?>
<!DOCTYPE svg PUBLIC "-//W3C//DTD SVG 1.1//EN" "http://www.w3.org/Graphics/SVG/1.1/DTD/svg11.dtd" >
<svg>
<metadata>
Created by FontForge 20110222 at Mon Mar  7 08:32:57 2011
 By www-data
http://www.fontsnthings.com/  "the most unusual fonts online"
</metadata>
<defs>
<font id="Star-Things" horiz-adv-x="1100" >
  <font-face 
    font-family="Star Things"
    font-weight="400"
    font-stretch="normal"
    units-per-em="1000"
    panose-1="0 0 0 0 0 0 0 0 0 0"
    ascent="800"
    descent="-200"
    x-height="800"
    cap-height="800"
    bbox="43 -200 1212 800"
    underline-thickness="20"
    underline-position="-123"
    unicode-range="U+0020-007A"
  />
    <missing-glyph />
    <glyph glyph-name="space" unicode=" " horiz-adv-x="500" 
 />
    <glyph glyph-name="zero" unicode="0" horiz-adv-x="1269" 
d="M635 11l288 -211l-39 356l328 144l-328 144l39 356l-289 -211l-288 211l39 -356l-327 -144l327 -144l-39 -356zM510 230l-125 128l172 27l78 164l77 -164l173 -27l-125 -128l29 -181l-154 86l-155 -86z" />
    <glyph glyph-name="one" unicode="1" horiz-adv-x="1269" 
d="M635 11l288 -211l-39 356l328 144l-328 144l39 356l-289 -211l-288 211l39 -356l-327 -144l327 -144l-39 -356zM466 83l14 80q1 4 1 12q0 26 -12 54.5t-32 48.5l-39 39q-14 14 -14 27q0 32 57 40l8 1q40 6 76.5 27.5t48.5 46.5l32 66q13 25 29 25q15 0 28 -25l32 -66
q12 -24 48.5 -46t76.5 -28l8 -1q57 -8 57 -40q0 -13 -14 -27l-39 -39q-20 -20 -32 -48.5t-12 -55.5q0 -7 1 -11l14 -80q6 -33 -25 -33q-17 0 -40 12l-28 15q-32 17 -75 17t-75 -17l-29 -15q-14 -8 -23 -10t-12.5 -2h-4.5q-30 0 -25 33z" />
    <glyph glyph-name="two" unicode="2" horiz-adv-x="1184" 
d="M407 -166l52 39q56 41 133 41q78 0 133 -41l53 -39q44 -34 78 -34q42 0 42 52q-1 8 -1 12l-15 142q-1 8 -1 12q0 52 44.5 108.5t110.5 86.5l25 11q70 31 70 76t-70 76l-25 11q-65 30 -110 86.5t-45 108.5q1 8 1 12l15 142q1 9 1 13q0 51 -43 51q-34 0 -78 -34l-52 -39
q-26 -21 -60 -31t-73 -10q-79 0 -133 41l-52 39q-46 34 -79 34q-41 0 -41 -50q0 -9 1 -14l15 -142q5 -53 -40.5 -114.5t-113.5 -92.5l-26 -11q-69 -32 -69 -76t69 -76l26 -11q65 -30 109.5 -87t44.5 -110v-10l-15 -142q-1 -4 -1 -8v-6q0 -25 12.5 -37.5t33.5 -12.5
q15 0 33.5 9t40.5 25zM467 230l-125 128l173 27l77 164l77 -164l173 -27l-125 -128l30 -181l-155 86l-154 -86z" />
    <glyph glyph-name="three" unicode="3" horiz-adv-x="1184" 
d="M407 -166l52 39q56 41 133 41q78 0 133 -41l53 -39q44 -34 78 -34q42 0 42 52q-1 8 -1 12l-15 142q-1 8 -1 12q0 52 44.5 108.5t110.5 86.5l25 11q70 31 70 76t-70 76l-25 11q-65 30 -110 86.5t-45 108.5q1 8 1 12l15 142q1 9 1 13q0 51 -43 51q-34 0 -78 -34l-52 -39
q-26 -21 -60 -31t-73 -10q-79 0 -133 41l-52 39q-46 34 -79 34q-41 0 -41 -50q0 -9 1 -14l15 -142q5 -53 -40.5 -114.5t-113.5 -92.5l-26 -11q-69 -32 -69 -76t69 -76l26 -11q65 -30 109.5 -87t44.5 -110v-10l-15 -142q-1 -4 -1 -8v-6q0 -25 12.5 -37.5t33.5 -12.5
q15 0 33.5 9t40.5 25zM424 84l13 79q1 4 1 14q0 58 -43 101l-39 39q-14 14 -14 27q0 32 57 40l8 1q41 6 76.5 27.5t47.5 46.5l32 66q13 25 29 25t29 -25l32 -66q12 -24 48 -46t76 -28l8 -1q57 -9 57 -40q0 -14 -13 -27l-40 -39q-43 -43 -43 -102q0 -9 1 -13l13 -79
q6 -34 -25 -34q-16 0 -39 12l-29 16q-29 16 -75 16q-44 0 -75 -16l-29 -16q-13 -8 -22.5 -10t-16.5 -2q-30 0 -25 34z" />
    <glyph glyph-name="four" unicode="4" horiz-adv-x="1269" 
d="M635 11l288 -211l-39 356l328 144l-328 144l39 356l-289 -211l-288 211l39 -356l-327 -144l327 -144l-39 -356zM542 144q0 38 27 65t66 27q38 0 65 -27t27 -65t-27 -65t-65 -27t-65.5 26.5t-27.5 65.5zM386 300q0 38 27 65t66 27q38 0 65 -27t27 -65t-27 -65t-65 -27
t-65.5 26.5t-27.5 65.5zM698 300q0 38 27 65t65 27t65.5 -26.5t27.5 -65.5q0 -38 -27 -65t-66 -27q-38 0 -65 27t-27 65zM542 456q0 38 27 65t66 27q38 0 65 -27t27 -65t-27 -65t-65 -27t-65.5 26.5t-27.5 65.5z" />
    <glyph glyph-name="five" unicode="5" horiz-adv-x="1184" 
d="M407 -166l52 39q56 41 133 41q78 0 133 -41l53 -39q44 -34 78 -34q42 0 42 52q-1 8 -1 12l-15 142q-1 8 -1 12q0 52 44.5 108.5t110.5 86.5l25 11q70 31 70 76t-70 76l-25 11q-65 30 -110 86.5t-45 108.5q1 8 1 12l15 142q1 9 1 13q0 51 -43 51q-34 0 -78 -34l-52 -39
q-26 -21 -60 -31t-73 -10q-79 0 -133 41l-52 39q-46 34 -79 34q-41 0 -41 -50q0 -9 1 -14l15 -142q5 -53 -40.5 -114.5t-113.5 -92.5l-26 -11q-69 -32 -69 -76t69 -76l26 -11q65 -30 109.5 -87t44.5 -110v-10l-15 -142q-1 -4 -1 -8v-6q0 -25 12.5 -37.5t33.5 -12.5
q15 0 33.5 9t40.5 25zM500 144q0 38 27 65t65 27t65 -27t27 -65t-27 -65t-65 -27t-65 27t-27 65zM344 300q0 38 27 65t65 27t65.5 -26.5t27.5 -65.5q0 -38 -27 -65t-66 -27q-38 0 -65 27t-27 65zM656 300q0 38 27 65t65 27t65 -27t27 -65t-27 -65t-65 -27t-65 27t-27 65z
M500 456q0 38 27 65t65 27t65 -27t27 -65t-27 -65t-65 -27t-65 27t-27 65z" />
    <glyph glyph-name="six" unicode="6" horiz-adv-x="1269" 
d="M635 11l288 -211l-39 356l328 144l-328 144l39 356l-289 -211l-288 211l39 -356l-327 -144l327 -144l-39 -356zM585 90l-66 29l66 29l-8 71l58 -42l57 42l-7 -71l65 -29l-65 -29l7 -71l-57 43l-58 -43zM425 250l-71 -8l42 58l-42 58l71 -8l29 65l29 -65l71 8l-42 -58
l42 -58l-71 8l-29 -65zM786 250l-71 -8l43 58l-43 58l71 -8l29 65l29 -65l71 8l-42 -58l42 -58l-71 8l-29 -65zM585 452l-66 29l66 29l-8 71l57 -43l58 43l-7 -71l65 -29l-65 -29l7 -71l-57 42l-58 -42z" />
    <glyph glyph-name="seven" unicode="7" horiz-adv-x="1184" 
d="M407 -166l52 39q56 41 133 41q78 0 133 -41l53 -39q44 -34 78 -34q42 0 42 52q-1 8 -1 12l-15 142q-1 8 -1 12q0 52 44.5 108.5t110.5 86.5l25 11q70 31 70 76t-70 76l-25 11q-65 30 -110 86.5t-45 108.5q1 8 1 12l15 142q1 9 1 13q0 51 -43 51q-34 0 -78 -34l-52 -39
q-26 -21 -60 -31t-73 -10q-79 0 -133 41l-52 39q-46 34 -79 34q-41 0 -41 -50q0 -9 1 -14l15 -142q5 -53 -40.5 -114.5t-113.5 -92.5l-26 -11q-69 -32 -69 -76t69 -76l26 -11q65 -30 109.5 -87t44.5 -110v-10l-15 -142q-1 -4 -1 -8v-6q0 -25 12.5 -37.5t33.5 -12.5
q15 0 33.5 9t40.5 25zM531 32l3 29q2 11 -7 22.5t-24 18.5l-5 2q-13 6 -13 15t13 15l5 3q14 6 23 18.5t8 22.5l-3 28q0 13 9 13q7 0 15 -7l11 -7q4 -4 11.5 -6t14.5 -2q18 0 27 8l10 7q8 7 16 7q9 0 8 -13l-3 -28q-2 -11 7.5 -23t23.5 -18l5 -3q14 -6 14 -15t-14 -15l-5 -2
q-14 -7 -23.5 -18.5t-7.5 -22.5l3 -29q2 -13 -8 -13q-5 0 -16 7l-10 8q-11 8 -27 8q-15 0 -26 -8l-11 -8q-2 -2 -7.5 -4.5t-6.5 -2.5q-11 0 -10 13zM396 206l-2 5q-13 31 -41 31l-29 -3q-13 -2 -13 8q0 5 7 16l8 10q3 3 5.5 10t2.5 17q0 17 -8 26l-8 11q-7 8 -7 15q0 9 13 9
l29 -3q11 -2 23 7.5t18 23.5l2 5q7 13 16 13t15 -13l2 -5q6 -14 18.5 -23t22.5 -8l29 3q13 0 13 -9q0 -4 -7 -15l-8 -11q-8 -11 -8 -26q0 -16 8 -27l8 -10q6 -9 6 -15q2 -11 -12 -9l-29 3q-11 0 -23 -8.5t-18 -22.5l-2 -5q-8 -14 -16 -14q-9 0 -15 14zM758 206l-3 5
q-13 31 -41 31l-28 -3q-13 -1 -13 8q0 8 7 16l8 10q3 3 5.5 10t2.5 17q0 17 -8 26l-8 11q-7 8 -7 16t13 8l28 -3q11 -2 23 7.5t18 23.5l3 5q6 13 15 13t15 -13l2 -5q7 -15 19 -24t23 -7l28 3q13 0 13 -9q0 -4 -7 -15l-8 -11q-8 -11 -8 -26q0 -16 8 -27l8 -10l7 -15
q0 -10 -13 -9l-28 3q-27 0 -42 -31l-2 -5q-6 -14 -15 -14t-15 14zM531 394l3 28q2 11 -7.5 23t-23.5 18l-5 3q-13 6 -13 15t13 15l5 2q15 7 24 19t7 23l-3 28q0 13 9 13q4 0 15 -7l11 -8q4 -4 11.5 -6t14.5 -2q18 0 27 8l10 8q8 7 16 7q10 0 8 -13l-3 -28q-2 -12 7 -23.5
t24 -18.5l5 -2q14 -6 14 -15t-14 -15l-5 -3q-14 -6 -23 -18.5t-8 -22.5l3 -28q1 -13 -8 -13q-8 0 -16 7l-10 7q-11 8 -27 8q-15 0 -26 -8l-11 -7q-7 -7 -14 -7q-12 -2 -10 13z" />
    <glyph glyph-name="eight" unicode="8" 
d="M550 -29l309 -171l-59 362l250 256l-346 53l-154 329l-155 -329l-345 -53l250 -256l-59 -362zM654 32l-29 15q-31 17 -75 17q-43 0 -75 -17l-29 -15q-6 -4 -13.5 -6.5t-12.5 -4t-8.5 -1.5h-4.5q-31 0 -25 33l13 80q1 4 1 14q0 58 -43 101l-39 39q-14 13 -14 27
q0 32 57 40l8 1q41 6 76.5 27.5t47.5 46.5l32 66q13 25 29 25t29 -25l32 -66q11 -24 47 -46t77 -28l8 -1q57 -8 57 -40q0 -13 -14 -27l-39 -39q-43 -43 -43 -102q0 -9 1 -13l13 -80q6 -33 -24 -33q-7 0 -16 1.5t-24 10.5zM498 128l14 7q17 9 38 9q22 0 37 -9l15 -7
q12 -6 20 -6q15 0 12 17l-7 40q-4 31 22 57l19 19q7 7 7 14q0 15 -28 20h-4q-20 3 -38.5 13.5t-24.5 23.5l-16 33q-7 13 -14 13t-14 -13l-16 -33q-15 -30 -63 -37h-4q-28 -5 -28 -20q0 -7 7 -14l19 -19q26 -26 22 -57l-7 -40q-3 -20 18 -17z" />
    <glyph glyph-name="nine" unicode="9" horiz-adv-x="1269" 
d="M635 11l288 -211l-39 356l328 144l-328 144l39 356l-289 -211l-288 211l39 -356l-327 -144l327 -144l-39 -356zM497 51q-18 3 -15 31l8 71q3 28 -19 57.5t-58 45.5l-13 6q-34 15 -34 38q0 22 34 38l13 6q34 16 57 46.5t20 56.5l-8 71q-3 32 21 32q18 0 39 -17l26 -20
q27 -20 67 -20t66 20l26 20q21 17 40 17q23 0 20 -32l-8 -71q0 -28 21.5 -58t55.5 -45l13 -6q35 -17 35 -38q0 -23 -35 -38l-13 -6q-34 -15 -55.5 -45t-21.5 -58l8 -71q3 -32 -21 -32q-18 0 -39 17l-26 20q-28 20 -66 20t-67 -20l-26 -20q-22 -16 -36 -17zM588 183l13 10
q14 10 34 10t33 -10l13 -10q11 -8 20 -8q11 0 10 16l-4 35q-2 14 9 29t29 23l7 3q17 7 17 19t-17 19l-7 3q-17 7 -28.5 22t-9.5 29l4 36q1 16 -11 16q-8 0 -19 -8l-13 -10q-14 -11 -33 -11q-18 0 -34 11l-13 10q-11 8 -20 8q-11 0 -10 -16l4 -36q2 -14 -9 -28.5t-29 -22.5
l-7 -3q-17 -8 -17 -19t17 -19l7 -3q17 -7 28.5 -22t9.5 -30l-4 -35q-1 -13 8 -16q8 -2 22 8z" />
    <glyph glyph-name="A" unicode="A" 
d="M343 -176l57 31q63 33 150 33q88 0 150 -33l57 -31q45 -24 79 -24q52 0 52 52q0 10 -1 15l-27 160q-2 16 -2 27q0 49 24.5 106.5t62.5 95.5l78 78q27 27 27 54q0 29 -29.5 50.5t-84.5 29.5l-16 2q-79 12 -152 55t-97 93l-64 133q-23 49 -57 49q-32 0 -57 -49l-64 -133
q-24 -50 -96.5 -93t-153.5 -55l-16 -2q-53 -8 -83 -30t-30 -50q0 -27 27 -54l78 -78q38 -37 62.5 -95t24.5 -109q0 -9 -2 -25l-27 -160q-1 -6 -1 -16q0 -51 53 -51q33 0 78 24z" />
    <glyph glyph-name="B" unicode="B" 
d="M550 629l309 171l-59 -362l250 -256l-346 -53l-154 -329l-154 329l-346 53l250 256l-59 362zM425 369l-125 -128l173 -26l77 -165l77 165l173 26l-125 128l29 181l-154 -85l-154 85z" />
    <glyph glyph-name="C" unicode="C" 
d="M343 776l57 -31q29 -16 70 -25t80 -9q43 0 80.5 8t69.5 26l57 31q45 24 79 24q52 0 52 -52q0 -10 -1 -15l-27 -160q-2 -16 -2 -26q0 -50 24 -107.5t63 -95.5l78 -78q27 -27 27 -54q0 -29 -29.5 -50.5t-83.5 -29.5l-16 -2q-80 -12 -153 -55t-97 -93l-64 -133
q-11 -24 -25.5 -36.5t-31.5 -12.5q-33 0 -57 49l-64 133q-24 50 -96.5 93t-153.5 55l-16 2q-53 8 -83 30t-30 50q0 27 27 54l78 78q38 37 62.5 95t24.5 109q0 9 -2 25l-27 160q-1 6 -1 17q0 50 50 50q18 0 37 -5.5t44 -18.5zM382 516l13 -80q1 -4 1 -13q0 -58 -43 -101
l-39 -39q-14 -13 -14 -27q0 -32 57 -40l8 -1q41 -6 76.5 -27.5t47.5 -46.5l32 -66q12 -25 29 -25t29 25l32 66q11 24 47 46t77 28l8 1q57 8 57 40q0 13 -14 27l-39 39q-19 19 -31 48t-12 53q0 9 1 13l13 80q6 34 -25 34q-16 0 -39 -12l-29 -15q-14 -8 -33.5 -12.5
t-41.5 -4.5q-45 0 -75 17l-29 15q-6 4 -13.5 6.5t-13 4t-12.5 1.5q-31 0 -25 -34z" />
    <glyph glyph-name="D" unicode="D" 
d="M343 776l57 -31q29 -16 70 -25t80 -9q43 0 80.5 8t69.5 26l57 31q45 24 79 24q52 0 52 -52q0 -10 -1 -15l-27 -160q-2 -16 -2 -26q0 -50 24 -107.5t63 -95.5l78 -78q27 -27 27 -54q0 -29 -29.5 -50.5t-83.5 -29.5l-16 -2q-80 -12 -153 -55t-97 -93l-64 -133
q-11 -24 -25.5 -36.5t-31.5 -12.5q-33 0 -57 49l-64 133q-24 50 -96.5 93t-153.5 55l-16 2q-53 8 -83 30t-30 50q0 27 27 54l78 78q38 37 62.5 95t24.5 109q0 9 -2 25l-27 160q-1 6 -1 17q0 50 50 50q18 0 37 -5.5t44 -18.5zM425 370l-125 -128l173 -27l77 -164l77 164
l173 27l-125 128l30 181l-155 -86l-155 86z" />
    <glyph glyph-name="E" unicode="E" 
d="M550 629l309 171l-59 -362l250 -256l-345 -53l-155 -329l-154 329l-346 53l250 256l-59 362zM382 516l13 -80q1 -4 1 -14q0 -58 -43 -101l-39 -39q-14 -13 -14 -27q0 -32 57 -40l8 -1q41 -6 76.5 -27.5t47.5 -46.5l32 -66q12 -25 29 -25t29 25l32 66q12 24 48 46t76 28
l8 1q57 9 57 40q0 14 -13 27l-40 39q-43 43 -43 102q0 9 1 13l13 80q6 33 -25 33q-16 0 -39 -12l-29 -15q-31 -17 -75 -17q-43 0 -75 17l-29 15q-16 9 -23.5 10.5t-11 1.5h-4.5q-31 0 -25 -33z" />
    <glyph glyph-name="F" unicode="F" 
d="M550 629l309 171l-59 -362l250 -256l-345 -53l-155 -329l-154 329l-346 53l250 256l-59 362zM363 404l-188 -193l259 -39l116 -247l116 247l259 39l-188 193l45 271l-232 -128l-232 128zM550 465l155 85l-30 -181l125 -128l-173 -26l-77 -165l-77 165l-173 26l125 128
l-29 181zM488 335l-63 -64l86 -14l39 -82l39 82l86 14l-62 64l14 90l-77 -43l-77 43z" />
    <glyph glyph-name="G" unicode="G" 
d="M343 776l57 -31q29 -16 70 -25t80 -9q43 0 80.5 8t69.5 26l57 31q45 24 79 24q52 0 52 -52q0 -10 -1 -15l-27 -160q-2 -16 -2 -26q0 -50 24 -107.5t63 -95.5l78 -78q27 -27 27 -54q0 -29 -29.5 -50.5t-83.5 -29.5l-16 -2q-80 -12 -153 -55t-97 -93l-64 -133
q-11 -24 -25.5 -36.5t-31.5 -12.5q-33 0 -57 49l-64 133q-24 50 -96.5 93t-153.5 55l-16 2q-53 8 -83 30t-30 50q0 27 27 54l78 78q38 37 62.5 95t24.5 109q0 9 -2 25l-27 160q-1 6 -1 17q0 50 50 50q18 0 37 -5.5t44 -18.5zM297 625l21 -120q1 -6 1 -19q0 -38 -18 -81.5
t-47 -71.5l-59 -59q-20 -20 -20 -40q0 -47 85 -60l12 -2q60 -9 114.5 -41t72.5 -70l48 -99q18 -37 43 -37t43 37l48 99q18 37 72.5 69.5t114.5 41.5l12 2q41 6 63 22t22 38q0 20 -20 40l-59 59q-29 28 -47 71.5t-18 82.5q0 12 1 18l21 120q1 4 1 12q0 38 -39 38
q-24 0 -59 -18l-44 -23q-47 -26 -112 -26t-112 26l-44 23q-17 9 -32 13.5t-28 4.5q-38 0 -38 -39q0 -7 1 -11zM718 516l-13 -80q-1 -4 -1 -13q0 -58 43 -101l39 -39q14 -13 14 -27q0 -32 -57 -40l-8 -1q-41 -6 -76.5 -27.5t-47.5 -46.5l-32 -66q-12 -25 -29 -25t-29 25
l-32 66q-11 24 -47 46t-77 28l-8 1q-57 8 -57 40q0 13 14 27l39 39q19 19 31 48t12 53q0 9 -1 13l-13 80q-6 34 26 34q7 0 17 -2.5t21 -9.5l29 -15q30 -17 75 -17q20 0 40 4t35 13l29 15q23 12 40 12q30 0 24 -34zM466 408l7 -40q4 -31 -22 -57l-19 -20q-7 -6 -7 -13
q0 -15 28 -20l4 -1q21 -2 38.5 -12.5t24.5 -24.5l16 -33q6 -12 14 -12t14 12l16 33q6 13 24 24t39 13l4 1q28 5 28 20q0 7 -7 13l-19 20q-26 26 -22 57l7 40q3 17 -13 17q-8 0 -19 -6l-15 -8q-13 -8 -37 -8q-13 0 -20.5 1.5t-16.5 6.5l-15 8q-8 5 -14 5q-21 5 -18 -16z" />
    <glyph glyph-name="H" unicode="H" 
d="M550 629l309 171l-59 -362l250 -256l-345 -53l-155 -329l-154 329l-346 53l250 256l-59 362zM319 353q0 -95 68 -163t163 -68t163 68t68 163t-68 163t-163 68t-163 -67t-68 -164zM723 353q0 -71 -50 -122t-123 -51q-71 0 -122 51t-51 122t51 122t122 51q72 0 122.5 -50.5
t50.5 -122.5zM435 353q0 -47 33 -81t82 -34q47 0 81 34t34 81q0 48 -33 82t-82 34q-47 0 -81 -34t-34 -82zM608 353q0 -23 -17 -40t-41 -17t-41 16t-17 41q0 24 17 41t41 17t41 -17t17 -41z" />
    <glyph glyph-name="I" unicode="I" 
d="M343 776l57 -31q29 -16 70 -25t80 -9q43 0 80.5 8t69.5 26l57 31q45 24 79 24q52 0 52 -52q0 -10 -1 -15l-27 -160q-2 -16 -2 -26q0 -50 24 -107.5t63 -95.5l78 -78q27 -27 27 -54q0 -29 -29.5 -50.5t-83.5 -29.5l-16 -2q-80 -12 -153 -55t-97 -93l-64 -133
q-11 -24 -25.5 -36.5t-31.5 -12.5q-33 0 -57 49l-64 133q-24 50 -96.5 93t-153.5 55l-16 2q-53 8 -83 30t-30 50q0 27 27 54l78 78q38 37 62.5 95t24.5 109q0 9 -2 25l-27 160q-1 6 -1 17q0 50 50 50q18 0 37 -5.5t44 -18.5zM319 354q0 -95 68 -163t163 -68t163 67t68 164
q0 95 -68 163t-163 68t-163 -68t-68 -163zM723 354q0 -72 -50.5 -122.5t-122.5 -50.5t-122.5 50.5t-50.5 122.5q0 71 50 122t123 51q71 0 122 -51t51 -122zM435 354q0 -48 33 -82t82 -34q47 0 81 34t34 82t-33.5 81.5t-81.5 33.5t-81.5 -33.5t-33.5 -81.5zM608 354
q0 -24 -17 -41t-41 -17t-41 17t-17 41t17 41t41 17t41 -17t17 -41z" />
    <glyph glyph-name="J" unicode="J" 
d="M548 630l-75 -161l-173 -27l125 -128l-29 -181l152 85l-37 78l-86 13l63 64l-15 90l77 -42l77 42l-14 -90l62 -64l-86 -13l-37 -78l153 -85l-30 181l125 128l-173 27l-75 161l307 170l-59 -362l250 -256l-345 -53l-155 -329l-154 329l-346 53l250 256l-59 362z" />
    <glyph glyph-name="K" unicode="K" 
d="M343 776l57 -31q63 -33 150 -33q88 0 150 33l57 31q45 24 79 24q52 0 52 -52q0 -10 -1 -15l-27 -160q-2 -18 -2 -27q0 -49 24.5 -107t61.5 -95l79 -78q27 -27 27 -54q0 -29 -29.5 -50.5t-84.5 -29.5l-16 -2q-79 -12 -152 -55t-97 -93l-64 -133q-11 -24 -25.5 -36.5
t-31.5 -12.5q-33 0 -57 49l-64 133q-24 50 -96.5 93t-153.5 55l-16 2q-53 8 -83 30t-30 50q0 27 27 54l78 78q38 37 62.5 95t24.5 109q0 9 -2 25l-27 160q-1 6 -1 17q0 50 50 50q18 0 37 -5.5t44 -18.5zM515 655l-38 -80q-11 -22 -39 -42l-4 -3h10q11 -2 23 -9l23 -12
q26 -14 60 -14q35 0 60 14l23 12q12 7 23 9h10l-4 3q-28 20 -39 42l-39 80q-14 30 -34 30t-35 -30zM398 509q-35 -17 -70 -22l-10 -2q-68 -9 -68 -47q0 -17 16 -33l47 -47q21 -21 33 -48l5 -10l10 17l31 31q35 37 35 82q0 7 -1 10l-11 64l2 15zM685 504l-11 -64
q-1 -4 -1 -12q0 -45 35 -80l31 -31l10 -17l4 10q14 28 34 48l47 47q16 16 16 33q0 16 -18.5 29.5t-49.5 17.5l-10 2q-17 2 -34.5 7.5t-35.5 14.5l-19 10zM360 273q3 -9 4 -18t1 -20q0 -10 -1 -14l-16 -96q-6 -40 31 -40q22 0 47 14l34 19q16 9 32 13.5t34 4.5l11 1l-10 13
l-26 54q-9 20 -37.5 36.5t-61.5 22.5l-7 1q-10 1 -14 2q-9 4 -12 5l-11 9zM731 271q-13 -6 -26 -7l-7 -1q-33 -5 -61.5 -22t-38.5 -37l-25 -54l-10 -13l11 -1q17 0 33 -4.5t33 -13.5l34 -19q13 -7 25 -10.5t23 -3.5q36 0 30 40l-16 96q-1 5 -1 16q0 14 5 36l2 7z" />
    <glyph glyph-name="L" unicode="L" 
d="M550 629l309 171l-59 -362l250 -256l-345 -53l-155 -329l-154 329l-346 53l250 256l-59 362zM460 574l-33 -18l123 -68l123 68l-33 18q-22 8 -44.5 13t-45.5 5q-22 0 -46 -5t-44 -13zM675 392l96 -98l5 20q4 24 4.5 32.5t0.5 14.5q0 48 -17.5 89t-50.5 74l-14 12z
M387 524q-33 -33 -50.5 -74t-17.5 -89q0 -13 1 -21t4 -26l5 -20l96 98l-24 144zM627 238l-49 -106l19 3q45 9 81.5 34t62.5 63l14 25zM359 232q25 -37 63 -62.5t82 -34.5l18 -3l-49 106l-128 19z" />
    <glyph glyph-name="M" unicode="M" 
d="M343 776l57 -31q29 -16 70 -25t80 -9q43 0 80.5 8t69.5 26l57 31q45 24 79 24q52 0 52 -52q0 -10 -1 -15l-27 -160q-2 -16 -2 -26q0 -50 24 -107.5t63 -95.5l78 -78q27 -27 27 -54q0 -29 -29.5 -50.5t-83.5 -29.5l-16 -2q-80 -12 -153 -55t-97 -93l-64 -133
q-11 -24 -25.5 -36.5t-31.5 -12.5q-33 0 -57 49l-64 133q-24 50 -96.5 93t-153.5 55l-16 2q-53 8 -83 30t-30 50q0 27 27 54l78 78q38 37 62.5 95t24.5 109q0 9 -2 25l-27 160q-1 6 -1 17q0 50 50 50q18 0 37 -5.5t44 -18.5zM429 577l-10 -6l27 -10l29 -15q30 -17 75 -17
q20 0 40 4t35 13l29 15l26 10l-9 6q-56 31 -121 31t-121 -31zM370 533q-35 -36 -54.5 -81t-19.5 -98q0 -16 1 -25t4 -26l3 -12l10 15l39 39q43 43 43 102q0 9 -1 13l-13 80zM705 460q-1 -4 -1 -14q0 -58 43 -101l39 -39l10 -15l3 12q3 17 4 25t1 26q0 51 -19.5 97.5
t-55.5 81.5l-11 10zM327 233q56 -105 172 -128l20 -3l-30 62q-11 24 -47 46t-77 28l-8 1q-22 3 -33 10l-8 6zM776 249q-11 -7 -33 -10l-8 -1q-41 -6 -76.5 -27.5t-47.5 -46.5l-30 -62l20 3q56 11 100.5 44.5t71.5 83.5l11 22z" />
    <glyph glyph-name="N" unicode="N" horiz-adv-x="1184" 
d="M407 -166l52 39q56 41 133 41q78 0 133 -41l53 -39q44 -34 78 -34q42 0 42 52q-1 8 -1 12l-15 142q-1 8 -1 12q0 52 44.5 108.5t110.5 86.5l25 11q70 31 70 76t-70 76l-25 11q-65 30 -110 86.5t-45 108.5q1 8 1 12l15 142q1 9 1 13q0 51 -42 51q-34 0 -78 -34l-53 -39
q-26 -21 -60 -31t-73 -10q-79 0 -133 41l-52 39q-46 34 -79 34q-41 0 -41 -50q0 -9 1 -14l15 -142q5 -53 -40.5 -114.5t-113.5 -92.5l-26 -11q-69 -32 -69 -76t69 -76l26 -11q65 -30 109.5 -87t44.5 -110v-10l-15 -142q-1 -4 -1 -8v-6q0 -50 41 -50q33 0 79 34z" />
    <glyph glyph-name="O" unicode="O" horiz-adv-x="953" 
d="M727 300l183 250l-308 -34l-125 284l-125 -284l-309 34l183 -250l-183 -250l309 33l125 -283l125 283l308 -33zM539 192l-62 -142l-63 142l-154 -17l92 125l-92 125l154 -17l63 142l62 -142l154 17l-91 -125l91 -125z" />
    <glyph glyph-name="P" unicode="P" horiz-adv-x="1022" 
d="M944 128l-37 49q-38 52 -38 123t38 123l37 49q31 41 31 72q0 40 -49 40q-7 -1 -11 -1l-131 -14q-51 -5 -107 36.5t-85 106.5l-11 23q-29 65 -70 65t-71 -65l-10 -23q-28 -62 -80 -103t-102 -41q-7 1 -10 1l-132 14q-8 1 -12 1q-48 0 -48 -39q0 -30 32 -73l36 -49
q19 -25 29 -57t10 -66q0 -72 -39 -123l-36 -49q-32 -43 -32 -73q0 -39 49 -39q7 1 11 1l132 14q51 5 107 -36.5t85 -106.5l10 -23q30 -65 71 -65q19 0 37.5 16.5t32.5 48.5l11 23q28 62 80 103t102 41q7 -1 10 -1l131 -14q8 -1 12 -1q48 0 48 43q0 15 -7.5 31t-23.5 38z
M713 159l-66 7q-26 2 -53 -18.5t-43 -53.5l-5 -12q-13 -32 -35 -32q-20 0 -35 32l-6 12q-14 32 -42 53t-54 19l-66 -7q-29 -3 -29 19q0 15 15 36l19 24q19 25 19 62t-19 62l-19 24q-15 21 -15 36q0 22 29 19l66 -7q26 -2 54 18.5t42 53.5l6 12q15 32 35 32q21 0 35 -32
l5 -12q15 -32 43 -53t53 -19l66 7q30 3 30 -19q0 -16 -16 -36l-18 -24q-19 -25 -19 -62t19 -62l18 -24q20 -26 15 -42q-3 -16 -29 -13z" />
    <glyph glyph-name="Q" unicode="Q" horiz-adv-x="1022" 
d="M944 128l-37 49q-38 52 -38 123t38 123l37 49q31 41 31 72q0 40 -49 40q-7 -1 -11 -1l-131 -14q-51 -5 -107 36.5t-85 106.5l-11 23q-29 65 -70 65t-71 -65l-10 -23q-28 -62 -80 -103t-102 -41q-7 1 -10 1l-132 14q-8 1 -12 1q-48 0 -48 -39q0 -30 32 -73l36 -49
q19 -25 29 -57t10 -66q0 -72 -39 -123l-36 -49q-32 -43 -32 -73q0 -39 49 -39q7 1 11 1l132 14q51 5 107 -36.5t85 -106.5l10 -23q30 -65 71 -65q19 0 37.5 16.5t32.5 48.5l11 23q28 62 80 103t102 41q7 -1 10 -1l131 -14q8 -1 12 -1q48 0 48 43q0 15 -7.5 31t-23.5 38z
M578 184l-67 -152l-67 152l-165 -18l98 134l-98 134l165 -18l67 152l67 -152l165 18l-98 -134l98 -134z" />
    <glyph glyph-name="R" unicode="R" horiz-adv-x="953" 
d="M727 300l183 250l-308 -33l-125 283l-125 -283l-309 33l183 -250l-183 -250l309 33l125 -283l125 283l308 -33zM665 168l-61 6q-23 3 -49 -16.5t-40 -49.5l-5 -11q-14 -30 -33 -30t-33 30l-5 11q-13 29 -40 49t-50 17l-61 -6q-28 -3 -28 18q0 14 15 34l17 22q18 24 18 58
t-18 58l-17 22q-15 20 -15 34q0 21 28 18l61 -6q24 -3 50 16t40 50l5 11q14 30 33 30t33 -30l5 -11q14 -30 40 -49.5t49 -16.5l61 6q29 3 29 -19q0 -13 -15 -33l-17 -22q-18 -24 -18 -58t18 -58l17 -22q17 -23 14 -39q-5 -16 -28 -13z" />
    <glyph glyph-name="S" unicode="S" horiz-adv-x="953" 
d="M727 300l183 250l-308 -33l-125 283l-125 -283l-309 33l183 -250l-183 -250l309 33l125 -283l125 283l308 -33zM570 138l-93 -213l-94 213l-231 -26l137 188l-137 187l231 -25l94 213l93 -213l232 25l-138 -187l138 -187zM602 300l91 125l-154 -17l-62 142l-63 -142
l-154 17l92 -125l-92 -125l154 17l63 -142l62 142l154 -17zM508 246l-31 -71l-32 71l-77 -8l46 62l-46 62l77 -8l32 71l31 -71l77 8l-46 -62l46 -62z" />
    <glyph glyph-name="T" unicode="T" horiz-adv-x="1022" 
d="M915 583l-131 -14q-51 -5 -107 36.5t-85 106.5l-11 23q-29 65 -70 65t-71 -65l-10 -23q-28 -62 -80 -103t-102 -41q-7 1 -10 1l-132 14q-8 1 -12 1q-48 0 -48 -39q0 -30 32 -73l36 -49q19 -25 29 -57t10 -66q0 -72 -39 -123l-36 -49q-32 -43 -32 -73q0 -39 49 -39
q7 1 11 1l132 14q51 5 107 -36.5t85 -106.5l10 -23q30 -65 71 -65q19 0 37.5 16.5t32.5 48.5l11 23q28 62 80 103t102 41q7 -1 10 -1l131 -14q8 -1 12 -1q48 0 48 43q0 15 -7.5 31t-23.5 38l-37 49q-38 52 -38 123t38 123l37 49q16 22 23.5 41t7.5 35q0 36 -48 36
q-8 -1 -12 -1zM836 429l-28 -36q-13 -18 -20.5 -43t-7.5 -50q0 -28 6 -50t22 -43l28 -36q23 -31 23 -50q3 -38 -45 -33l-98 10q-38 4 -80 -27t-64 -80l-8 -18q-21 -48 -53 -48q-30 0 -53 48l-8 18q-20 46 -59 77t-76 31q-6 -1 -9 -1l-99 -10q-44 -5 -44 29q0 24 23 54l28 36
q29 40 29 93t-29 93l-28 36q-23 30 -23 54q0 34 44 29l99 -10q37 -4 79.5 27t64.5 80l8 18q23 48 53 48q32 0 53 -48l8 -18q20 -46 58.5 -77t76.5 -31q6 1 9 1l98 10q45 5 45 -26q0 -25 -23 -57zM727 214l-18 24q-19 25 -19 62t19 62l18 24q16 20 16 36q0 22 -30 19l-66 -7
q-26 -2 -53 18.5t-43 53.5l-5 12q-14 32 -35 32q-20 0 -35 -32l-6 -12q-14 -32 -42 -53t-54 -19l-66 7q-29 3 -29 -19q0 -15 15 -36l19 -24q19 -25 19 -62t-19 -62l-19 -24q-15 -21 -15 -36q0 -22 29 -19l66 7q26 2 54 -18.5t42 -53.5l6 -12q15 -32 35 -32q22 0 35 32l5 12
q15 32 43 53t53 19l66 -7q26 -3 29 13l1 9q-2 14 -16 33zM612 229l-33 4q-12 1 -26.5 -9.5t-21.5 -26.5l-3 -6q-6 -16 -17 -16t-18 16l-3 6q-7 16 -21 27t-26 9l-33 -4q-15 -2 -15 10q0 7 8 18l9 12q4 5 7 14.5t3 16.5q0 18 -10 31l-9 12q-8 11 -8 19q0 11 15 9l33 -4
q12 -1 26 9.5t21 26.5l3 6q8 16 18 16q11 0 17 -16l3 -6q8 -17 21.5 -27.5t26.5 -8.5l33 4q15 2 15 -10q0 -7 -8 -18l-9 -12q-10 -15 -10 -31q0 -18 10 -31l9 -12q9 -14 8 -21q-3 -8 -15 -7z" />
    <glyph glyph-name="U" unicode="U" horiz-adv-x="953" 
d="M727 300l183 250l-308 -33l-125 283l-125 -283l-309 33l183 -250l-183 -250l309 33l125 -283l125 283l308 -33zM477 100q-84 0 -142 58t-58 142q0 83 58.5 141.5t141.5 58.5t141.5 -58.5t58.5 -141.5t-58.5 -141.5t-141.5 -58.5zM477 450q-62 0 -106 -44t-44 -106
t44 -106t106 -44t106 44t44 106t-44 106t-106 44zM477 200q-42 0 -71 29t-29 71t29 71t71 29t71 -29t29 -71t-29 -71t-71 -29zM477 350q-21 0 -35.5 -14.5t-14.5 -35.5t14.5 -35.5t35.5 -14.5t35.5 14.5t14.5 35.5q0 20 -15 35t-35 15z" />
    <glyph glyph-name="V" unicode="V" horiz-adv-x="1022" 
d="M975 61q-3 29 -31 67l-37 48q-17 24 -27.5 57.5t-10.5 66.5q0 71 38 124l37 48q16 22 23.5 41t7.5 35q0 36 -48 36q-8 -1 -12 -1l-131 -14q-51 -5 -107 36.5t-85 106.5l-11 23q-29 65 -70 65t-71 -65l-10 -23q-28 -62 -80 -103t-102 -41q-7 1 -10 1l-132 14q-8 1 -12 1
q-48 0 -48 -39q0 -30 32 -73l36 -48q39 -53 39 -124q0 -73 -39 -124l-36 -48q-32 -43 -32 -73q0 -39 49 -39q7 1 11 1l132 14q51 5 107 -36.5t85 -106.5l10 -23q30 -65 71 -65q19 0 37.5 16.5t32.5 48.5l11 23q28 62 80 103t102 41q7 -1 10 -1l131 -14q8 -1 12 -1
q48 0 48 39v6zM511 86q-89 0 -151.5 62.5t-62.5 151.5t62.5 151.5t151.5 62.5t151.5 -62.5t62.5 -151.5t-62.5 -151.5t-151.5 -62.5zM511 461q-67 0 -114 -47t-47 -114t47 -114t114 -47t114 47t47 114t-47 114t-114 47zM511 193q-45 0 -76 31t-31 76t31 76t76 31t76 -31
t31 -76t-31 -76t-76 -31zM511 354q-23 0 -38.5 -15.5t-15.5 -38.5t15.5 -38.5t38.5 -15.5q22 0 37.5 15.5t15.5 38.5t-15.5 38.5t-37.5 15.5z" />
    <glyph glyph-name="W" unicode="W" horiz-adv-x="953" 
d="M727 300l183 250l-308 -33l-125 283l-125 -283l-309 33l183 -250l-183 -250l309 33l125 -283l125 283l308 -33zM585 237l17 -154l-125 92l-125 -92l16 154l-141 63l141 63l-16 154l125 -92l125 92l-17 -154l142 -63zM539 300l46 62l-77 -8l-31 71l-32 -71l-77 8l46 -62
l-46 -62l77 8l32 -71l31 71l77 -8z" />
    <glyph glyph-name="X" unicode="X" horiz-adv-x="1022" 
d="M944 128l-37 49q-38 52 -38 123t38 123l37 49q31 41 31 72q0 40 -49 40q-7 -1 -11 -1l-131 -14q-51 -5 -107 36.5t-85 106.5l-11 23q-29 65 -70 65t-71 -65l-10 -23q-28 -62 -80 -103t-102 -41q-7 1 -10 1l-132 14q-8 1 -12 1q-48 0 -48 -39q0 -30 32 -73l36 -49
q19 -25 29 -57t10 -66q0 -72 -39 -123l-36 -49q-32 -43 -32 -73q0 -39 49 -39q7 1 11 1l132 14q51 5 107 -36.5t85 -106.5l10 -23q30 -65 71 -65q19 0 37.5 16.5t32.5 48.5l11 23q28 62 80 103t102 41q7 -1 10 -1l131 -14q8 -1 12 -1q48 0 48 43q0 15 -7.5 31t-23.5 38z
M772 258l-14 -7q-29 -12 -51 -36l-11 -13l-1 10q-2 7 -11 19l-15 20q-15 20 -15 49q0 28 15 49l15 20q9 12 11 19l1 10l11 -13q22 -24 51 -36l14 -7q39 -17 39 -42t-39 -42zM684 184q-12 -21 -12 -48l9 -79q3 -36 -24 -36q-18 0 -43 19l-29 22q-31 23 -74 23q-42 0 -74 -23
l-29 -22q-25 -19 -43 -19q-27 0 -24 36l9 79q0 14 -2.5 24.5t-9.5 23.5l-3 5l14 -2l53 5q20 2 42.5 -14.5t33.5 -42.5l5 -9q12 -26 28 -26t28 26l4 9q12 27 34 43t43 14l53 -5l14 2zM673 413l-53 -5q-20 -2 -42.5 14.5t-34.5 42.5l-4 9q-12 26 -28 26t-28 -26l-5 -9
q-11 -26 -33.5 -42.5t-42.5 -14.5l-53 5l-14 -2l3 5q12 21 12 48l-9 79q-3 36 24 36q18 0 43 -19l29 -22q30 -23 74 -23q45 0 74 23l29 22q25 19 43 19q27 0 24 -36l-9 -79q0 -14 2.5 -24.5t9.5 -23.5l3 -5zM352 251l-14 -20q-8 -9 -11 -19l-1 -10l-11 13q-25 25 -51 36
l-14 7q-39 17 -39 42q0 24 39 42l14 7q15 6 26.5 14.5t24.5 21.5l11 13l1 -10q3 -10 11 -19l14 -20q16 -21 16 -49t-16 -49z" />
    <glyph glyph-name="Y" unicode="Y" horiz-adv-x="953" 
d="M727 300l183 250l-308 -33l-125 283l-125 -283l-309 33l183 -250l-183 -250l309 33l125 -283l125 283l308 -33zM652 205l-2 -5l-73 100l73 100l2 -5q25 -44 25 -95t-25 -95zM527 387l-50 113q51 0 94.5 -23.5t70.5 -64.5l8 -12zM642 188q-27 -41 -70 -64.5t-95 -23.5
l50 113l123 -13zM311 188l-7 12l123 13l50 -113q-50 0 -94 23.5t-72 64.5zM427 387l-123 13l7 12q28 41 71 64.5t95 23.5zM304 200l-3 5q-24 42 -24 95t24 95l3 5l73 -100z" />
    <glyph glyph-name="Z" unicode="Z" horiz-adv-x="1022" 
d="M944 128l-37 49q-38 52 -38 123t38 123l37 49q31 41 31 72q0 40 -49 40q-7 -1 -11 -1l-131 -14q-51 -5 -107 36.5t-85 106.5l-11 23q-29 65 -70 65t-71 -65l-10 -23q-28 -62 -80 -103t-102 -41q-7 1 -10 1l-132 14q-8 1 -12 1q-48 0 -48 -39q0 -30 32 -73l36 -49
q19 -25 29 -57t10 -66q0 -72 -39 -123l-36 -49q-32 -43 -32 -73q0 -39 49 -39q7 1 11 1l132 14q51 5 107 -36.5t85 -106.5l10 -23q30 -65 71 -65q19 0 37.5 16.5t32.5 48.5l11 23q28 62 80 103t102 41q7 -1 10 -1l131 -14q8 -1 12 -1q48 0 48 43q0 15 -7.5 31t-23.5 38z
M511 86q-89 0 -152 62t-63 152q0 88 63 151t152 63t151.5 -62.5t62.5 -151.5t-62.5 -151.5t-151.5 -62.5zM684 231l-15 20q-15 20 -15 49q0 28 15 49l15 20q13 16 13 29q0 18 -24 15l-53 -5q-20 -2 -42.5 14.5t-34.5 42.5l-4 9q-12 26 -28 26t-28 -26l-5 -9
q-11 -26 -33.5 -42.5t-42.5 -14.5l-53 5q-24 3 -24 -15q0 -13 13 -29l14 -20q16 -20 16 -49q0 -30 -16 -49l-14 -20q-13 -16 -13 -29q0 -18 24 -15l53 5q20 2 42.5 -14.5t33.5 -42.5l5 -9q12 -26 28 -26t28 26l4 9q12 27 34 43t43 14l53 -5q20 -3 23 11q3 12 -12 33z" />
    <glyph glyph-name="a" unicode="a" 
d="M550 -29l309 -171l-59 362l250 256l-346 53l-154 329l-155 -329l-345 -53l250 -256l-59 -362z" />
    <glyph glyph-name="b" unicode="b" 
d="M550 -29l309 -171l-59 362l250 256l-346 53l-154 329l-155 -329l-345 -53l250 -256l-59 -362zM425 231l-125 128l173 26l77 165l77 -165l173 -26l-125 -128l29 -181l-154 85l-155 -85z" />
    <glyph glyph-name="c" unicode="c" 
d="M343 -176l57 31q65 34 150 34q87 0 150 -34l57 -31q45 -24 79 -24q52 0 52 52q0 10 -1 15l-27 160q-2 16 -2 27q0 49 24.5 106.5t62.5 95.5l78 78q27 27 27 54q0 29 -29.5 50.5t-84.5 29.5l-16 2q-79 12 -152 55t-97 93l-64 133q-23 49 -57 49q-32 0 -57 -49l-64 -133
q-24 -50 -96.5 -93t-153.5 -55l-16 -2q-53 -8 -83 -30t-30 -50q0 -27 27 -54l78 -78q38 -37 62.5 -95t24.5 -109q0 -9 -2 -25l-27 -160q-1 -6 -1 -17q0 -50 50 -50q18 0 37 5.5t44 18.5zM382 83l13 80q1 4 1 14q0 58 -43 101l-39 39q-14 13 -14 27q0 32 57 40l8 1
q41 6 76.5 27.5t47.5 46.5l32 66q13 25 29 25t29 -25l32 -66q11 -24 47 -46t77 -28l8 -1q57 -8 57 -40q0 -13 -14 -27l-39 -39q-43 -43 -43 -102q0 -9 1 -13l13 -80q6 -33 -25 -33q-16 0 -39 12l-29 15q-31 17 -75 17q-43 0 -75 -17l-29 -15q-6 -4 -13.5 -6.5t-12.5 -4
t-8.5 -1.5h-4.5q-31 0 -25 33z" />
    <glyph glyph-name="d" unicode="d" 
d="M343 -176l57 31q65 34 150 34q87 0 150 -34l57 -31q45 -24 79 -24q52 0 52 52q0 10 -1 15l-27 160q-2 16 -2 27q0 49 24.5 106.5t62.5 95.5l78 78q27 27 27 54q0 29 -29.5 50.5t-84.5 29.5l-16 2q-79 12 -152 55t-97 93l-64 133q-23 49 -57 49q-32 0 -57 -49l-64 -133
q-24 -50 -96.5 -93t-153.5 -55l-16 -2q-53 -8 -83 -30t-30 -50q0 -27 27 -54l78 -78q38 -37 62.5 -95t24.5 -109q0 -9 -2 -25l-27 -160q-1 -6 -1 -17q0 -50 50 -50q18 0 37 5.5t44 18.5zM425 230l-125 128l173 27l77 164l77 -164l173 -27l-125 -128l29 -181l-154 86
l-155 -86z" />
    <glyph glyph-name="e" unicode="e" 
d="M550 -29l309 -171l-59 362l250 256l-346 53l-154 329l-155 -329l-345 -53l250 -256l-59 -362zM382 84l13 80q1 4 1 14q0 58 -43 101l-39 39q-14 13 -14 27q0 32 57 40l8 1q41 6 76.5 27.5t47.5 46.5l32 66q13 25 29 25t29 -25l32 -66q11 -24 47 -46t77 -28l8 -1
q57 -8 57 -40q0 -13 -14 -27l-39 -39q-43 -43 -43 -102q0 -9 1 -13l13 -80q6 -33 -25 -33q-16 0 -39 12l-29 15q-29 16 -75 16q-44 0 -75 -16l-29 -15q-16 -9 -23.5 -10.5t-11 -1.5h-4.5q-31 0 -25 33z" />
    <glyph glyph-name="f" unicode="f" 
d="M550 -29l309 -171l-59 362l250 256l-346 53l-154 329l-155 -329l-345 -53l250 -256l-59 -362zM362 196l-187 193l259 39l116 247l116 -247l259 -39l-188 -193l45 -271l-232 128l-232 -128zM550 135l154 -85l-29 181l125 128l-173 26l-77 165l-77 -165l-173 -26l125 -128
l-30 -181zM487 265l-62 64l86 14l39 82l39 -82l86 -14l-63 -64l15 -90l-77 43l-77 -43z" />
    <glyph glyph-name="g" unicode="g" 
d="M343 -176l57 31q65 34 150 34q87 0 150 -34l57 -31q45 -24 79 -24q52 0 52 52q0 10 -1 15l-27 160q-2 16 -2 27q0 49 24.5 106.5t62.5 95.5l78 78q27 27 27 54q0 29 -29.5 50.5t-84.5 29.5l-16 2q-79 12 -152 55t-97 93l-64 133q-23 49 -57 49q-32 0 -57 -49l-64 -133
q-24 -50 -96.5 -93t-153.5 -55l-16 -2q-53 -8 -83 -30t-30 -50q0 -27 27 -54l78 -78q38 -37 62.5 -95t24.5 -109q0 -9 -2 -25l-27 -160q-1 -6 -1 -17q0 -50 50 -50q18 0 37 5.5t44 18.5zM297 -25l21 120q1 6 1 19q0 37 -18.5 81t-46.5 72l-59 59q-20 20 -20 40q0 47 85 60
l12 2q60 9 114.5 41t72.5 70l48 99q19 37 43 37t43 -37l48 -99q18 -38 71.5 -70t115.5 -41l12 -2q41 -6 63 -22t22 -38q0 -20 -20 -40l-59 -59q-28 -28 -46.5 -72t-18.5 -82q0 -12 1 -18l21 -120q1 -4 1 -12q0 -38 -39 -38q-25 0 -60 18l-43 23q-46 25 -112 25t-112 -25
l-44 -23q-17 -9 -32 -13.5t-28 -4.5q-38 0 -38 39q0 7 1 11zM718 83l-13 80q-1 4 -1 14q0 58 43 101l39 39q14 13 14 27q0 32 -57 40l-8 1q-41 6 -76.5 27.5t-47.5 46.5l-32 66q-13 25 -29 25t-29 -25l-32 -66q-11 -24 -47 -46t-77 -28l-8 -1q-57 -8 -57 -40q0 -13 14 -27
l39 -39q43 -43 43 -102q0 -9 -1 -13l-13 -80q-6 -33 26 -33q6 0 10 1q17 4 28 11l29 15q32 17 75 17q44 0 75 -17l29 -15q23 -12 40 -12q30 0 24 33zM466 192l6 40q5 31 -21 57l-19 20q-7 6 -7 13q0 15 28 20l4 1q22 3 39 13t24 23l16 34q6 12 14 12t14 -12l16 -34
q6 -12 24.5 -22.5t38.5 -13.5l4 -1q28 -5 28 -20q0 -7 -7 -13l-19 -20q-26 -26 -22 -57l7 -40q3 -17 -13 -17q-8 0 -19 6l-15 8q-16 8 -37 8q-20 0 -38 -8l-14 -8q-8 -5 -14 -5q-21 -5 -18 16z" />
    <glyph glyph-name="h" unicode="h" 
d="M550 -29l309 -171l-59 362l250 256l-346 53l-154 329l-155 -329l-345 -53l250 -256l-59 -362zM319 247q0 95 68 163t163 68t163 -68t68 -163t-68 -163t-163 -68t-163 67t-68 164zM723 247q0 71 -50 122t-123 51q-71 0 -122 -51t-51 -122q0 -72 50.5 -122.5t122.5 -50.5
t122.5 50.5t50.5 122.5zM435 247q0 48 33.5 81.5t81.5 33.5t81.5 -33.5t33.5 -81.5t-33 -82t-82 -34q-47 0 -81 34t-34 82zM608 247q0 23 -17 40t-41 17t-41 -16t-17 -41q0 -24 17 -41t41 -17t41 17t17 41z" />
    <glyph glyph-name="i" unicode="i" 
d="M343 -176l57 31q65 34 150 34q87 0 150 -34l57 -31q45 -24 79 -24q52 0 52 52q0 10 -1 15l-27 160q-2 16 -2 27q0 49 24.5 106.5t62.5 95.5l78 78q27 27 27 54q0 29 -29.5 50.5t-84.5 29.5l-16 2q-79 12 -152 55t-97 93l-64 133q-23 49 -57 49q-32 0 -57 -49l-64 -133
q-24 -50 -96.5 -93t-153.5 -55l-16 -2q-53 -8 -83 -30t-30 -50q0 -27 27 -54l78 -78q38 -37 62.5 -95t24.5 -109q0 -9 -2 -25l-27 -160q-1 -6 -1 -17q0 -50 50 -50q18 0 37 5.5t44 18.5zM319 246q0 95 68 163t163 68t163 -67t68 -164q0 -95 -68 -163t-163 -68t-163 68
t-68 163zM723 246q0 71 -51 122t-122 51q-72 0 -122.5 -50.5t-50.5 -122.5q0 -71 50 -122t123 -51q71 0 122 51t51 122zM435 246q0 48 33 82t82 34q47 0 81 -34t34 -82t-33.5 -81.5t-81.5 -33.5t-81.5 33.5t-33.5 81.5zM608 246q0 24 -17 41t-41 17t-41 -17t-17 -41
q0 -23 17 -40t41 -17t41 16t17 41z" />
    <glyph glyph-name="j" unicode="j" 
d="M548 -30l-75 161l-173 27l125 128l-30 181l153 -85l-37 -78l-86 -13l62 -64l-14 -90l77 42l77 -42l-15 90l63 64l-86 13l-37 78l152 85l-29 -181l125 -128l-173 -27l-75 -161l307 -170l-59 362l250 256l-346 53l-154 329l-155 -329l-345 -53l250 -256l-59 -362z" />
    <glyph glyph-name="k" unicode="k" 
d="M343 -176l57 31q65 34 150 34q87 0 150 -34l57 -31q45 -24 79 -24q52 0 52 52q0 10 -1 15l-27 160q-2 16 -2 27q0 49 24.5 106.5t62.5 95.5l78 78q27 27 27 54q0 29 -29.5 50.5t-83.5 29.5l-17 2q-79 12 -152 55t-97 93l-64 133q-23 49 -57 49q-32 0 -57 -49l-64 -133
q-24 -50 -96.5 -93t-152.5 -55l-17 -2q-53 -8 -83 -30t-30 -50q0 -27 27 -54l78 -78q38 -37 62.5 -95t24.5 -108v-13q-2 -9 -2 -13l-27 -160q-1 -6 -1 -17q0 -50 50 -50q37 0 81 24zM516 -55l-39 80q-11 22 -39 42l-4 3h10q5 1 10.5 3t12.5 6l23 12q25 13 60 13q37 0 60 -13
l23 -12q3 -2 10 -4.5t13 -4.5h10l-4 -3q-28 -20 -39 -42l-39 -80q-14 -30 -34 -30t-34 30zM398 91q-35 18 -70 22l-10 2q-68 9 -68 47q0 17 16 33l47 47q21 21 33 48l5 10l10 -17l31 -31q35 -37 35 -82q0 -7 -1 -10l-11 -64l2 -15zM685 96l-11 64q-1 3 -1 11q0 19 10 42
t25 39l31 31l10 17l4 -10q14 -28 34 -48l47 -47q16 -16 16 -33q0 -16 -18.5 -29.5t-49.5 -17.5l-10 -2q-17 -2 -34.5 -7.5t-35.5 -14.5l-19 -10zM360 327q3 9 4 18t1 20q0 10 -1 14l-16 96q-6 40 31 40q22 0 47 -14l34 -19q16 -9 32 -13.5t34 -4.5l11 -1l-10 -14l-26 -53
q-9 -20 -37.5 -36.5t-61.5 -22.5l-7 -1q-5 -1 -9.5 -1.5t-16.5 -5.5l-11 -9zM731 329q-13 6 -26 7l-7 1q-33 5 -61.5 22t-38.5 37l-25 53l-10 14l11 1q17 0 33 4.5t33 13.5l34 19q13 7 25 10.5t23 3.5q36 0 30 -40l-16 -96q-1 -5 -1 -16q0 -14 5 -36l2 -7z" />
    <glyph glyph-name="l" unicode="l" 
d="M550 -29l309 -171l-59 362l250 256l-346 53l-154 329l-155 -329l-345 -53l250 -256l-59 -362zM460 26l-33 18l123 68l123 -68l-33 -18q-22 -8 -44.5 -13t-45.5 -5q-22 0 -46 5t-44 13zM675 208l96 98l5 -20q2 -9 3.5 -19.5t1.5 -27.5q0 -48 -17.5 -89t-50.5 -74l-15 -12z
M387 76q-33 33 -50.5 74t-17.5 89q0 14 1 22t4 25l5 20l96 -98l-24 -144zM627 362l-49 106l18 -3q46 -9 82.5 -33.5t62.5 -63.5l14 -25zM359 368q24 36 62 62t82 35l19 3l-49 -106l-128 -19z" />
    <glyph glyph-name="m" unicode="m" 
d="M343 -176l57 31q65 34 150 34q87 0 150 -34l57 -31q45 -24 79 -24q52 0 52 52q0 10 -1 15l-27 160q-2 16 -2 27q0 49 24.5 106.5t62.5 95.5l78 78q27 27 27 54q0 29 -29.5 50.5t-84.5 29.5l-16 2q-79 12 -152 55t-97 93l-64 133q-23 49 -57 49q-32 0 -57 -49l-64 -133
q-24 -50 -96.5 -93t-153.5 -55l-16 -2q-53 -8 -83 -30t-30 -50q0 -27 27 -54l78 -78q38 -37 62.5 -95t24.5 -109q0 -9 -2 -25l-27 -160q-1 -6 -1 -17q0 -50 50 -50q18 0 37 5.5t44 18.5zM429 23l-10 6l27 10l29 15q32 17 75 17q44 0 75 -17l29 -15l26 -10l-9 -6
q-56 -31 -121 -31t-121 31zM370 67q-35 35 -54.5 81t-19.5 98q0 16 1 25t4 26l3 12l10 -15l39 -39q43 -43 43 -102q0 -9 -1 -13l-13 -80zM705 140q-1 4 -1 14q0 58 43 101l39 39l10 15l3 -12q3 -17 4 -25t1 -26q0 -51 -19.5 -97t-55.5 -82l-11 -10zM327 367q27 50 71.5 83.5
t100.5 44.5l20 3l-30 -62q-11 -24 -47 -46t-77 -28l-8 -1q-22 -3 -33 -10l-8 -6zM776 351q-10 7 -33 10l-8 1q-41 6 -76.5 27.5t-47.5 46.5l-30 62l20 -3q56 -11 100.5 -44.5t71.5 -83.5l11 -22z" />
    <glyph glyph-name="n" unicode="n" horiz-adv-x="1269" 
d="M635 11l288 -211l-39 356l328 144l-328 144l39 356l-289 -211l-288 211l39 -356l-327 -144l327 -144l-39 -356z" />
    <glyph glyph-name="o" unicode="o" horiz-adv-x="1269" 
d="M635 11l288 -211l-39 356l328 144l-328 144l39 356l-289 -211l-288 211l39 -356l-327 -144l327 -144l-39 -356zM510 228l-164 72l164 72l-20 178l145 -106l144 106l-20 -178l164 -72l-164 -72l20 -178l-144 106l-145 -106z" />
    <glyph glyph-name="p" unicode="p" horiz-adv-x="1184" 
d="M407 -166l52 39q56 41 133 41q78 0 133 -41l53 -39q44 -34 78 -34q42 0 42 52q-1 8 -1 12l-15 142q-1 8 -1 12q0 52 44.5 108.5t110.5 86.5l25 11q70 31 70 76t-70 76l-25 11q-65 30 -110 86.5t-45 108.5q1 8 1 12l15 142q1 9 1 13q0 51 -43 51q-34 0 -78 -34l-52 -39
q-26 -21 -60 -31t-73 -10q-79 0 -133 41l-52 39q-46 34 -79 34q-41 0 -41 -50q0 -9 1 -14l15 -142q5 -53 -40.5 -114.5t-113.5 -92.5l-26 -11q-69 -32 -69 -76t69 -76l26 -11q65 -30 109.5 -87t44.5 -110v-10l-15 -142q-1 -4 -1 -8v-6q0 -25 12.5 -37.5t33.5 -12.5
q15 0 33.5 9t40.5 25zM440 82l7 71q3 27 -19 57t-58 46l-12 6q-35 15 -35 38q0 21 35 38l12 6q35 16 57.5 45.5t19.5 57.5l-7 71q-3 32 21 32q17 0 38 -17l27 -20q26 -20 66 -20q41 0 67 20l26 20q21 17 39 17q23 0 20 -32l-7 -71q-3 -28 19 -57.5t58 -45.5l13 -6
q35 -17 35 -38q0 -23 -35 -38l-13 -6q-34 -16 -57 -46.5t-20 -56.5l7 -71q3 -32 -21 -32q-17 0 -38 17l-26 20q-28 20 -67 20q-38 0 -66 -20l-27 -20q-27 -21 -45 -16q-17 3 -14 31z" />
    <glyph glyph-name="q" unicode="q" horiz-adv-x="1184" 
d="M407 -166l52 39q56 41 133 41q78 0 133 -41l53 -39q44 -34 78 -34q42 0 42 52q-1 8 -1 12l-15 142q-1 8 -1 12q0 52 44.5 108.5t110.5 86.5l25 11q70 31 70 76t-70 76l-25 11q-65 30 -110 86.5t-45 108.5q1 8 1 12l15 142q1 9 1 13q0 51 -43 51q-34 0 -78 -34l-52 -39
q-26 -21 -60 -31t-73 -10q-79 0 -133 41l-52 39q-46 34 -79 34q-41 0 -41 -50q0 -9 1 -14l15 -142q5 -53 -40.5 -114.5t-113.5 -92.5l-26 -11q-69 -32 -69 -76t69 -76l26 -11q65 -30 109.5 -87t44.5 -110v-10l-15 -142q-1 -4 -1 -8v-6q0 -25 12.5 -37.5t33.5 -12.5
q15 0 33.5 9t40.5 25zM467 228l-163 72l163 72l-19 178l144 -106l144 106l-19 -178l164 -72l-164 -72l19 -178l-144 106l-144 -106z" />
    <glyph glyph-name="r" unicode="r" horiz-adv-x="1269" 
d="M635 11l288 -211l-39 356l328 144l-328 144l39 356l-289 -211l-288 211l39 -356l-327 -144l327 -144l-39 -356zM482 82l8 71q3 28 -19 57.5t-58 45.5l-13 6q-34 15 -34 38q0 22 34 38l13 6q34 16 57 46.5t20 56.5l-8 71q-3 32 21 32q18 0 39 -17l26 -20q27 -20 67 -20
t66 20l26 20q21 17 40 17q23 0 20 -32l-8 -71q0 -28 21.5 -58t55.5 -45l13 -6q35 -17 35 -38q0 -23 -35 -38l-13 -6q-34 -15 -55.5 -45t-21.5 -58l8 -71q3 -32 -21 -32q-18 0 -39 17l-26 20q-28 20 -66 20t-67 -20l-26 -20q-27 -21 -45 -16q-18 3 -15 31z" />
    <glyph glyph-name="s" unicode="s" horiz-adv-x="1269" 
d="M635 11l288 -211l-39 356l328 144l-328 144l39 356l-289 -211l-288 211l39 -356l-327 -144l327 -144l-39 -356zM447 192l-245 108l245 108l-29 267l216 -158l217 158l-29 -267l245 -108l-245 -108l29 -267l-216 158l-217 -158zM635 156l144 -106l-20 178l164 72l-164 72
l20 178l-144 -106l-145 106l20 -178l-164 -72l164 -72l-20 -178zM572 264l-82 36l82 36l-10 89l73 -53l72 53l-10 -89l82 -36l-82 -36l10 -89l-72 53l-73 -53z" />
    <glyph glyph-name="t" unicode="t" horiz-adv-x="1184" 
d="M897 -136l-15 142q-1 8 -1 12q0 52 44.5 108.5t110.5 86.5l25 11q70 31 70 76t-70 76l-25 11q-65 30 -110 86.5t-45 108.5q1 8 1 12l15 142q1 9 1 13q0 51 -43 51q-34 0 -78 -34l-52 -39q-26 -21 -60 -31t-73 -10q-79 0 -133 41l-52 39q-46 34 -79 34q-41 0 -41 -50
q0 -9 1 -14l15 -142q5 -53 -40.5 -114.5t-113.5 -92.5l-26 -11q-69 -32 -69 -76t69 -76l26 -11q65 -30 109.5 -87t44.5 -110v-10l-15 -142q-1 -4 -1 -8v-6q0 -25 12.5 -37.5t33.5 -12.5q15 0 33.5 9t40.5 25l52 39q56 41 133 41q78 0 133 -41l53 -39q23 -17 44 -25.5
t37 -8.5q39 0 39 52q-1 8 -1 12zM731 -50l-39 30q-42 31 -100 31q-57 0 -100 -31l-39 -30q-31 -22 -54 -25q-36 0 -36 38q1 6 1 10l11 107q5 41 -29.5 86t-86.5 68l-19 9q-52 23 -52 57q0 33 52 57l19 9q49 22 82.5 63.5t33.5 81.5v9l-11 107q-6 48 31 48q24 0 58 -25
l39 -30q41 -31 100 -31q60 0 100 31l39 30q34 25 58 25q32 0 32 -39v-9l-12 -107q-4 -40 30.5 -85.5t85.5 -68.5l19 -9q52 -24 52 -57t-52 -57l-19 -9q-52 -23 -86 -68t-30 -86l12 -107q5 -48 -29 -48q-18 0 -35 8q-9 4 -26 17zM499 67l27 20q28 20 66 20q39 0 67 -20
l26 -20q21 -17 39 -17q23 0 20 32l-7 71q-3 28 19 57.5t58 45.5l13 6q35 15 35 38q0 21 -35 38l-13 6q-34 16 -57 46.5t-20 56.5l7 71q3 32 -21 32q-17 0 -38 -17l-26 -20q-26 -20 -67 -20q-40 0 -66 20l-27 20q-21 17 -39 17q-23 0 -20 -32l7 -71q3 -27 -19 -57t-58 -46
l-12 -6q-35 -17 -35 -38q0 -23 35 -38l12 -6q35 -16 57.5 -45.5t19.5 -57.5l-7 -71q-3 -28 14 -31l9 -1q16 2 36 17zM516 191l4 36q1 13 -10.5 28.5t-28.5 22.5l-6 3q-17 8 -17 19t17 19l6 3q18 8 29.5 22.5t9.5 28.5l-4 36q-1 16 11 16q6 0 19 -8l13 -10q14 -11 33 -11
t33 11l14 10q11 8 19 8q11 0 10 -16l-4 -36q0 -13 11.5 -28.5t27.5 -22.5l6 -3q18 -8 18 -19t-18 -19l-6 -3q-17 -7 -28 -21.5t-11 -29.5l4 -36q1 -16 -11 -16q-7 0 -18 8l-14 10q-13 10 -33 10t-33 -10l-13 -10q-14 -9 -23 -8q-8 3 -7 16z" />
    <glyph glyph-name="u" unicode="u" horiz-adv-x="1269" 
d="M635 11l288 -211l-39 356l328 144l-328 144l39 356l-289 -211l-288 211l39 -356l-327 -144l327 -144l-39 -356zM404 300q0 95 67 163t164 68q95 0 162.5 -67.5t67.5 -163.5q0 -95 -67 -163t-163 -68q-95 0 -163 68t-68 163zM808 300q0 71 -51 122t-122 51q-72 0 -123 -51
t-51 -122t51 -122t123 -51q71 0 122 50t51 123zM519 300q0 47 34 81t82 34q47 0 81 -33t34 -82q0 -47 -34 -81t-81 -34q-48 0 -82 33t-34 82zM692 300q0 24 -17 41t-40 17q-24 0 -41 -17t-17 -41t17 -41t41 -17q23 0 40 17t17 41z" />
    <glyph glyph-name="v" unicode="v" horiz-adv-x="1184" 
d="M335 -200q31 3 72 34l52 39q56 41 133 41q78 0 133 -41l53 -39q23 -17 44 -25.5t37 -8.5q39 0 39 52q-1 8 -1 12l-15 142q-1 8 -1 12q0 52 44.5 108.5t110.5 86.5l25 11q70 31 70 76t-70 76l-25 11q-65 30 -110 86.5t-45 108.5q1 8 1 12l15 142q1 9 1 13q0 51 -43 51
q-34 0 -78 -34l-52 -39q-26 -20 -60.5 -30.5t-72.5 -10.5q-79 0 -133 41l-52 39q-46 34 -79 34q-41 0 -41 -50q0 -9 1 -14l15 -142q5 -53 -40.5 -114.5t-113.5 -92.5l-26 -11q-69 -32 -69 -76t69 -76l26 -11q65 -30 109.5 -87t44.5 -110v-10l-15 -142q-1 -4 -1 -8v-6
q0 -50 42 -50h6zM361 300q0 95 68 163t163 68t163 -68t68 -163t-67 -163t-164 -68q-95 0 -163 68t-68 163zM765 300q0 72 -50.5 122.5t-122.5 50.5q-71 0 -122 -50t-51 -123q0 -71 51 -122t122 -51t122 51t51 122zM477 300q0 48 33.5 81.5t81.5 33.5t82 -33t34 -82
q0 -47 -34 -81t-82 -34t-81.5 33.5t-33.5 81.5zM650 300q0 24 -17 41t-41 17t-41 -17t-17 -41t17 -41t41 -17t41 17t17 41z" />
    <glyph glyph-name="w" unicode="w" horiz-adv-x="1269" 
d="M635 11l288 -211l-39 356l328 144l-328 144l39 356l-289 -211l-288 211l39 -356l-327 -144l327 -144l-39 -356zM562 175l-177 -19l105 144l-105 144l177 -19l73 163l72 -163l178 19l-106 -144l106 -144l-178 19l-72 -164zM635 228l72 -53l-10 89l82 36l-82 36l10 89
l-72 -53l-73 53l10 -89l-82 -36l82 -36l-10 -89z" />
    <glyph glyph-name="x" unicode="x" horiz-adv-x="1184" 
d="M407 -166l52 39q56 41 133 41q78 0 133 -41l53 -39q44 -34 78 -34q42 0 42 52q-1 8 -1 12l-15 142q-1 8 -1 12q0 52 44.5 108.5t110.5 86.5l25 11q70 31 70 76t-70 76l-25 11q-65 30 -110 86.5t-45 108.5q1 8 1 12l15 142q1 9 1 13q0 51 -43 51q-34 0 -78 -34l-52 -39
q-26 -21 -60 -31t-73 -10q-79 0 -133 41l-52 39q-46 34 -79 34q-41 0 -41 -50q0 -9 1 -14l15 -142q5 -53 -40.5 -114.5t-113.5 -92.5l-26 -11q-69 -32 -69 -76t69 -76l26 -11q65 -30 109.5 -87t44.5 -110v-10l-15 -142q-1 -4 -1 -8v-6q0 -25 12.5 -37.5t33.5 -12.5
q15 0 33.5 9t40.5 25zM547 19l-7 15q-16 33 -39 55l-15 12l12 1q10 3 20 12l21 15q22 16 53 16q17 0 29 -3.5t24 -12.5l21 -15q13 -10 21 -12l11 -1l-15 -12q-25 -25 -38 -55l-7 -15q-20 -42 -46 -42q-27 0 -45 42zM467 114q-28 15 -51 12l-85 -9q-39 -3 -39 26q0 18 20 46
l24 31q25 32 25 80t-25 80l-24 31q-20 26 -20 46q0 29 39 26l85 -9q11 -1 24.5 2t26.5 10l5 3l-2 -15l6 -56q2 -22 -15.5 -46t-45.5 -37l-10 -5q-28 -12 -28 -30t28 -30l10 -5q27 -12 45 -37t16 -46l-6 -56l2 -15zM714 126l-6 56q-2 23 15.5 46.5t46.5 36.5l10 5
q28 12 28 30t-28 30l-10 5q-28 12 -46 36.5t-16 46.5l6 56l-2 15l5 -3q28 -15 51 -12l86 9q38 3 38 -25q0 -21 -20 -47l-24 -31q-25 -34 -25 -80t25 -80l24 -31q20 -26 20 -47q0 -28 -38 -25l-86 9q-11 1 -24.5 -2t-26.5 -10l-5 -3zM539 471l-21 15q-10 9 -20 12l-12 1
l15 12q23 22 39 55l7 15q20 42 46 42q27 0 45 -42l7 -15q13 -30 38 -55l15 -12l-11 -1q-8 -2 -21 -12l-21 -15q-22 -17 -53 -17q-30 0 -53 17z" />
    <glyph glyph-name="y" unicode="y" horiz-adv-x="1269" 
d="M635 11l288 -211l-39 356l328 144l-328 144l39 356l-289 -211l-288 211l39 -356l-327 -144l327 -144l-39 -356zM525 97l-6 3l116 85l115 -85l-5 -3q-51 -28 -110 -28q-60 0 -110 28zM734 242l131 58q0 -60 -27 -109.5t-74 -81.5l-14 -9zM506 109q-47 31 -74.5 81.5
t-27.5 109.5l131 -58l-16 -142zM506 491l13 9l16 -142l-131 -58q0 60 26.5 109.5t75.5 81.5zM734 358l16 142l14 -9q46 -31 73.5 -82t27.5 -109zM519 500l6 3q50 28 110 28q59 0 110 -28l5 -3l-115 -85z" />
    <glyph glyph-name="z" unicode="z" horiz-adv-x="1184" 
d="M407 -166l52 39q56 41 133 41q78 0 133 -41l53 -39q44 -34 78 -34q42 0 42 52q-1 8 -1 12l-15 142q-1 8 -1 12q0 52 44.5 108.5t110.5 86.5l25 11q70 31 70 76t-70 76l-25 11q-65 30 -110 86.5t-45 108.5q1 8 1 12l15 142q1 9 1 13q0 51 -43 51q-34 0 -78 -34l-52 -39
q-26 -21 -60 -31t-73 -10q-79 0 -133 41l-52 39q-46 34 -79 34q-41 0 -41 -50q0 -9 1 -14l15 -142q5 -53 -40.5 -114.5t-113.5 -92.5l-26 -11q-69 -32 -69 -76t69 -76l26 -11q65 -30 109.5 -87t44.5 -110v-10l-15 -142q-1 -4 -1 -8v-6q0 -25 12.5 -37.5t33.5 -12.5
q15 0 33.5 9t40.5 25zM361 300q0 95 68 163t163 68t163 -68t68 -163t-67 -163t-164 -68q-95 0 -163 68t-68 163zM518 114l21 15q22 16 53 16q17 0 29 -3.5t24 -12.5l21 -15q17 -14 32 -14q19 0 16 26l-6 56q-2 23 15.5 46.5t46.5 36.5l10 5q28 12 28 30t-28 30l-10 5
q-28 12 -46 36.5t-16 46.5l6 56q3 26 -17 26q-12 0 -31 -14l-21 -15q-22 -17 -53 -17q-30 0 -53 17l-21 15q-17 14 -31 14q-20 0 -17 -26l6 -56q2 -22 -15.5 -46t-45.5 -37l-10 -5q-28 -12 -28 -30t28 -30l10 -5q27 -12 45 -37t16 -46l-6 -56q0 -22 12 -25q13 -4 36 13z" />
  </font>
</defs>
</svg>
